<svg xmlns="http://www.w3.org/2000/svg" version="1.1" xmlns:xlink="http://www.w3.org/1999/xlink" width="512" height="512" x="0" y="0" viewBox="0 0 512 512" style="enable-background:new 0 0 512 512" xml:space="preserve" class=""><g><path d="m436.88 100.131 32.69.02c8.28 0 15 6.72 14.99 15l-.13 274M401.88 100.121l-33.22-.02M27.432 388.942l.032-68.154M64.79 430.051H37.5c-16.57 0-30-13.44-30-30 0-2.77 1.12-5.27 2.93-7.07a9.969 9.969 0 0 1 7.07-2.93h265.03M282.53 430.051H99.79M452.064 390.047H494.5c5.523 0 10 4.477 10 10v0c0 16.569-13.431 30-30 30h-22.181M282.532 318.943H22.612c-8.346 0-15.112-6.766-15.112-15.112V48.151c0-8.346 6.766-15.112 15.112-15.112h329.436c8.345 0 15.109 6.765 15.109 15.109v162.22" style="stroke-width:15;stroke-linecap:round;stroke-linejoin:round;stroke-miterlimit:10;" fill="none" stroke="#000000" stroke-width="15" stroke-linecap="round" stroke-linejoin="round" stroke-miterlimit="10" data-original="#000000" class=""></path><path d="M111.88 62.041h226.28v148.33M76.88 62.041H36.5v227.9h246.03" style="stroke-width:15;stroke-linecap:round;stroke-linejoin:round;stroke-miterlimit:10;" fill="none" stroke="#000000" stroke-width="15" stroke-linecap="round" stroke-linejoin="round" stroke-miterlimit="10" data-original="#000000" class=""></path><circle cx="187.328" cy="173.991" r="67.043" style="stroke-width:15;stroke-linecap:round;stroke-linejoin:round;stroke-miterlimit:10;" fill="none" stroke="#000000" stroke-width="15" stroke-linecap="round" stroke-linejoin="round" stroke-miterlimit="10" data-original="#000000" class=""></circle><path d="m161.591 173.867 21.063 23.718 34.412-44.164M284.43 375.711v83.11c0 11.13 9.02 20.14 20.14 20.14H429.7c11.12 0 20.13-9.01 20.13-20.14v-226.6c0-11.13-9.01-20.14-20.13-20.14H304.57c-11.12 0-20.14 9.01-20.14 20.14v108.49M353.706 238.189h26.852" style="stroke-width:15;stroke-linecap:round;stroke-linejoin:round;stroke-miterlimit:10;" fill="none" stroke="#000000" stroke-width="15" stroke-linecap="round" stroke-linejoin="round" stroke-miterlimit="10" data-original="#000000" class=""></path><circle cx="367.132" cy="345.521" r="52.251" style="stroke-width:15;stroke-linecap:round;stroke-linejoin:round;stroke-miterlimit:10;" fill="none" stroke="#000000" stroke-width="15" stroke-linecap="round" stroke-linejoin="round" stroke-miterlimit="10" data-original="#000000" class=""></circle><path d="m348.637 345.517 15.228 17.147 24.88-31.929" style="stroke-width:15;stroke-linecap:round;stroke-linejoin:round;stroke-miterlimit:10;" fill="none" stroke="#000000" stroke-width="15" stroke-linecap="round" stroke-linejoin="round" stroke-miterlimit="10" data-original="#000000" class=""></path></g></svg>