<svg xmlns="http://www.w3.org/2000/svg" version="1.1" xmlns:xlink="http://www.w3.org/1999/xlink" width="512" height="512" x="0" y="0" viewBox="0 0 512 512" style="enable-background:new 0 0 512 512" xml:space="preserve" class=""><g><path d="M472 441.755H40c-16.569 0-30-13.431-30-30v-50.327h492v50.327c0 16.569-13.431 30-30 30zM235.918 401.592h40.164M301.184 441.755 321.265 502M190.735 502l20.081-60.245M150.571 502h210.858" style="stroke-width:20;stroke-linecap:round;stroke-linejoin:round;stroke-miterlimit:10;" fill="none" stroke="#000000" stroke-width="20" stroke-linecap="round" stroke-linejoin="round" stroke-miterlimit="10" data-original="#000000" class=""></path><path d="M353.757 60.204h118.12c16.638 0 30.122 13.485 30.122 30.122v321.306c0 16.638-13.485 30.122-30.122 30.122H40.122C23.485 441.755 10 428.27 10 411.633V90.326c0-16.638 13.485-30.122 30.122-30.122h125.892M256 281.102v-81.963" style="stroke-width:20;stroke-linecap:round;stroke-linejoin:round;stroke-miterlimit:10;" fill="none" stroke="#000000" stroke-width="20" stroke-linecap="round" stroke-linejoin="round" stroke-miterlimit="10" data-original="#000000" class=""></path><circle cx="256" cy="301.184" r="20.082" style="stroke-width:20;stroke-linecap:round;stroke-linejoin:round;stroke-miterlimit:10;" transform="rotate(-22.5 255.988 301.172)" fill="none" stroke="#000000" stroke-width="20" stroke-linecap="round" stroke-linejoin="round" stroke-miterlimit="10" data-original="#000000" class=""></circle><path d="M190.735 199.139v81.963H157.6" style="stroke-width:20;stroke-linecap:round;stroke-linejoin:round;stroke-miterlimit:10;" fill="none" stroke="#000000" stroke-width="20" stroke-linecap="round" stroke-linejoin="round" stroke-miterlimit="10" data-original="#000000" class=""></path><circle cx="130.49" cy="281.102" r="20.082" style="stroke-width:20;stroke-linecap:round;stroke-linejoin:round;stroke-miterlimit:10;" transform="rotate(-80.839 130.5 281.117)" fill="none" stroke="#000000" stroke-width="20" stroke-linecap="round" stroke-linejoin="round" stroke-miterlimit="10" data-original="#000000" class=""></circle><path d="M321.265 199.139v81.963h40.164" style="stroke-width:20;stroke-linecap:round;stroke-linejoin:round;stroke-miterlimit:10;" fill="none" stroke="#000000" stroke-width="20" stroke-linecap="round" stroke-linejoin="round" stroke-miterlimit="10" data-original="#000000" class=""></path><circle cx="381.51" cy="281.102" r="20.082" style="stroke-width:20;stroke-linecap:round;stroke-linejoin:round;stroke-miterlimit:10;" transform="rotate(-9.213 381.494 281.04)" fill="none" stroke="#000000" stroke-width="20" stroke-linecap="round" stroke-linejoin="round" stroke-miterlimit="10" data-original="#000000" class=""></circle><path d="M150.72 100.367H50.163v261.062h411.674V100.367H352.831" style="stroke-width:20;stroke-linecap:round;stroke-linejoin:round;stroke-miterlimit:10;" fill="none" stroke="#000000" stroke-width="20" stroke-linecap="round" stroke-linejoin="round" stroke-miterlimit="10" data-original="#000000" class=""></path><path d="M396.397 149.374c-.753-24.758-20.204-44.028-44.731-45.739a68.604 68.604 0 0 0 4.634-24.858C356.3 40.793 325.507 10 287.523 10c-25.713 0-48.126 14.112-59.927 35.012a53.486 53.486 0 0 0-6.057-1.265l-.003-.001a57.089 57.089 0 0 0-13.806-1.685c-31.506 0-57.045 25.539-57.045 57.045 0 2.058.113 4.094.323 6.095a.038.038 0 0 1-.027.04c-20.453 5.645-35.471 23.51-35.401 45.78.084 26.709 22.238 48.115 48.948 48.115h182.957c27.373 0 49.744-22.401 48.912-49.762z" style="stroke-width:20;stroke-linecap:round;stroke-linejoin:round;stroke-miterlimit:10;" fill="none" stroke="#000000" stroke-width="20" stroke-linecap="round" stroke-linejoin="round" stroke-miterlimit="10" data-original="#000000" class=""></path></g></svg>