<svg xmlns="http://www.w3.org/2000/svg" version="1.1" xmlns:xlink="http://www.w3.org/1999/xlink" width="512" height="512" x="0" y="0" viewBox="0 0 512 512" style="enable-background:new 0 0 512 512" xml:space="preserve" class=""><g><path d="M487.265 132.646H355.577c-8.676 0-15.735 7.059-15.735 15.735v83.384c0 8.677 7.059 15.735 15.735 15.735h38.632c1.966 17.384-6.565 27.56-6.93 27.985a6.999 6.999 0 0 0 6.098 11.598c24.663-3.083 36.732-15.398 42.515-25.187a49.422 49.422 0 0 0 5.68-14.397h45.692c8.677 0 15.735-7.059 15.735-15.735V148.38c.001-8.675-7.058-15.734-15.734-15.734zM489 231.765c0 .94-.795 1.735-1.735 1.735h-51.758a7.001 7.001 0 0 0-6.999 6.855c-.001.067-.263 6.961-4.67 14.421-3.999 6.769-10.04 11.764-18.041 14.938 2.531-7.701 4-18.127 1.137-30.761a7 7 0 0 0-6.827-5.453h-44.531c-.94 0-1.735-.795-1.735-1.735v-83.384c0-.94.795-1.735 1.735-1.735h131.688c.94 0 1.735.795 1.735 1.735v83.384zm-205.262 79.75c0 25.803 20.992 46.794 46.794 46.794s46.794-20.991 46.794-46.794c0-25.799-20.992-46.788-46.794-46.788s-46.794 20.989-46.794 46.788zm46.794-32.788c18.083 0 32.794 14.709 32.794 32.788 0 18.083-14.711 32.794-32.794 32.794s-32.794-14.711-32.794-32.794c0-18.079 14.712-32.788 32.794-32.788zm0 88.515c-51.336 0-93.102 41.763-93.102 93.096 0 9.91 5.463 23.734 31.487 33.315 16.371 6.027 38.251 9.347 61.612 9.347 46.34 0 93.099-13.191 93.099-42.662 0-51.334-41.762-93.096-93.096-93.096zM330.529 489c-44.354 0-79.099-12.59-79.099-28.662 0-43.613 35.485-79.096 79.102-79.096 43.614 0 79.096 35.482 79.096 79.096 0 16.072-34.744 28.662-79.099 28.662zm-71.116-223.535c0-14.014-11.401-25.414-25.415-25.414-11.586 0-21.378 7.795-24.426 18.414h-8.561v-28.019h22.436a7 7 0 0 0 7-7V174.22H275.6c3.048 10.619 12.841 18.414 24.426 18.414 14.013 0 25.414-11.4 25.414-25.414s-11.401-25.414-25.414-25.414c-11.586 0-21.378 7.795-24.426 18.414h-45.153v-49.227a7 7 0 0 0-7-7h-22.436V75.975h8.561c3.048 10.619 12.841 18.414 24.426 18.414 14.014 0 25.415-11.401 25.415-25.415S248.012 43.56 233.998 43.56c-11.586 0-21.379 7.796-24.427 18.415h-15.56a7 7 0 0 0-7 7v35.019H174.22V58.841c10.619-3.048 18.415-12.841 18.415-24.427C192.635 20.401 181.234 9 167.221 9s-25.415 11.4-25.415 25.413c0 11.585 7.795 21.378 18.414 24.427v45.153h-12.791V68.975a7 7 0 0 0-7-7h-15.56c-3.048-10.619-12.84-18.415-24.426-18.415-14.014 0-25.415 11.4-25.415 25.414s11.401 25.415 25.415 25.415c11.585 0 21.377-7.795 24.426-18.414h8.561v28.019h-22.436a7 7 0 0 0-7 7v49.227H58.84c-3.048-10.62-12.84-18.415-24.425-18.415C20.401 141.806 9 153.207 9 167.22s11.401 25.414 25.415 25.414c11.585 0 21.378-7.795 24.426-18.414h45.153v30.459H34.415a7 7 0 0 0-7 7v156.312C16.795 371.04 9 380.833 9 392.418c0 14.014 11.401 25.414 25.415 25.414 14.013 0 25.414-11.4 25.414-25.414 0-11.585-7.795-21.378-18.414-24.427V218.679h62.579v4.768a7 7 0 0 0 7 7h22.436v28.019h-8.561c-3.048-10.619-12.841-18.414-24.426-18.414-14.014 0-25.415 11.4-25.415 25.414s11.401 25.414 25.415 25.414c11.585 0 21.378-7.795 24.426-18.414h15.561a7 7 0 0 0 7-7v-35.019h12.791V275.6c-10.619 3.048-18.414 12.84-18.414 24.426 0 14.014 11.401 25.414 25.414 25.414 14.014 0 25.415-11.4 25.415-25.414 0-11.586-7.795-21.378-18.415-24.426v-45.153h12.791v35.019a7 7 0 0 0 7 7h15.561c3.048 10.619 12.841 18.414 24.426 18.414 14.013-.001 25.414-11.401 25.414-25.415zm40.613-109.659c6.294 0 11.414 5.12 11.414 11.414s-5.12 11.414-11.414 11.414-11.415-5.12-11.415-11.414 5.121-11.414 11.415-11.414zM233.998 57.56c6.294 0 11.415 5.12 11.415 11.414s-5.121 11.415-11.415 11.415-11.415-5.121-11.415-11.415 5.121-11.414 11.415-11.414zm-78.192-23.146c0-6.293 5.121-11.413 11.415-11.413s11.415 5.12 11.415 11.413c0 6.294-5.121 11.415-11.415 11.415s-11.415-5.121-11.415-11.415zm-55.363 45.975c-6.294 0-11.415-5.121-11.415-11.415s5.121-11.414 11.415-11.414 11.414 5.12 11.414 11.414-5.12 11.415-11.414 11.415zm-66.028 98.245c-6.294 0-11.415-5.12-11.415-11.414s5.121-11.414 11.415-11.414 11.414 5.12 11.414 11.414-5.121 11.414-11.414 11.414zm11.414 213.784c0 6.294-5.12 11.414-11.414 11.414S23 398.712 23 392.418s5.121-11.415 11.415-11.415 11.414 5.122 11.414 11.415zm54.614-115.539c-6.294 0-11.415-5.12-11.415-11.414s5.121-11.414 11.415-11.414 11.414 5.12 11.414 11.414-5.12 11.414-11.414 11.414zm78.192 23.147c0 6.294-5.121 11.414-11.415 11.414s-11.414-5.12-11.414-11.414 5.12-11.414 11.414-11.414 11.415 5.12 11.415 11.414zm-60.641-182.032h98.454v98.453h-98.454zm116.004 158.885c-6.294 0-11.415-5.12-11.415-11.414s5.121-11.414 11.415-11.414 11.415 5.12 11.415 11.414-5.121 11.414-11.415 11.414zm240.942-86.806a7 7 0 0 1-7 7H374.9a7 7 0 1 1 0-14h93.04a7 7 0 0 1 7 7zm0-25.631a7 7 0 0 1-7 7H374.9a7 7 0 1 1 0-14h93.04a7 7 0 0 1 7 7zm0 51.262a7 7 0 0 1-7 7H374.9a7 7 0 1 1 0-14h93.04c3.867 0 7 3.133 7 7z" fill="#000000" opacity="1" data-original="#000000" class=""></path></g></svg>