<svg xmlns="http://www.w3.org/2000/svg" version="1.1" xmlns:xlink="http://www.w3.org/1999/xlink" width="512" height="512" x="0" y="0" viewBox="0 0 480 480" style="enable-background:new 0 0 512 512" xml:space="preserve" class=""><g><path d="M472 384h-24V160h-16v224H48V216H32v168H8a8 8 0 0 0-8 8v32c0 13.254 10.746 24 24 24h432c13.254 0 24-10.746 24-24v-32a8 8 0 0 0-8-8zm-264 16h64v8h-64zm256 24a8 8 0 0 1-8 8H24a8 8 0 0 1-8-8v-24h176v8c0 8.836 7.164 16 16 16h64c8.836 0 16-7.164 16-16v-8h176zM192 80h56v16h-56zm0 0" fill="#000000" opacity="1" data-original="#000000" class=""></path><path d="M189.008 281.664c-17.149 4.961-28.969 20.645-29.008 38.496V352H80v16h320v-16h-80v-31.84c-.04-17.851-11.855-33.535-29-38.496l-27-7.71v-10.161A39.82 39.82 0 0 0 280 232v-8a8 8 0 0 0 8-8v-8c0-26.508-21.492-48-48-48s-48 21.492-48 48v8a8 8 0 0 0 8 8v8a39.82 39.82 0 0 0 16 31.793v10.16zM304 320.16V352h-16v-32h-16v32h-64v-32h-16v32h-16v-31.84a24.114 24.114 0 0 1 17.398-23.113l17.403-4.957 24.398 18.308a7.992 7.992 0 0 0 9.602 0l24.398-18.308 17.403 4.965A24.109 24.109 0 0 1 304 320.16zM240 176c17.586 0 31.875 14.191 32 31.777a8.013 8.013 0 0 1-5.281-4.21l-3.559-7.133a8 8 0 0 0-11.602-3.09l-11.902 7.937A39.895 39.895 0 0 1 217.465 208H208c0-17.672 14.328-32 32-32zm-22.535 48a55.826 55.826 0 0 0 31.062-9.406l4.383-2.922a23.633 23.633 0 0 0 11.09 10V232c0 13.254-10.746 24-24 24s-24-10.746-24-24v-8zM240 272a39.869 39.869 0 0 0 8-.8v8.8a7.934 7.934 0 0 0 2.762 5.922L240 294l-10.762-8.078A7.934 7.934 0 0 0 232 280v-8.8c2.633.534 5.313.804 8 .8zM288 144h24v32a8 8 0 0 0 5.352 7.55A8.25 8.25 0 0 0 320 184a7.99 7.99 0 0 0 6.246-3l29.594-37H448c13.254 0 24-10.746 24-24V24c0-13.254-10.746-24-24-24H288c-13.254 0-24 10.746-24 24v96c0 13.254 10.746 24 24 24zm-8-120a8 8 0 0 1 8-8h160a8 8 0 0 1 8 8v96a8 8 0 0 1-8 8h-96a7.99 7.99 0 0 0-6.246 3L328 153.191V136a8 8 0 0 0-8-8h-32a8 8 0 0 1-8-8zm0 0" fill="#000000" opacity="1" data-original="#000000" class=""></path><path d="M312 32h112v16H312zM312 64h112v16H312zM312 96h112v16H312zM88 208c48.602 0 88-39.398 88-88s-39.398-88-88-88S0 71.398 0 120c.059 48.578 39.422 87.941 88 88zm71.527-96h-23.742a154.074 154.074 0 0 0-2.992-24h19.605a71.26 71.26 0 0 1 7.13 24zM80 168v21.328A46.475 46.475 0 0 1 64.61 168zm-20.457-16a136.63 136.63 0 0 1-3.336-24H80v24zM96 189.328V168h15.39A46.475 46.475 0 0 1 96 189.328zM96 152v-24h23.793a136.63 136.63 0 0 1-3.336 24zm39.785-24h23.742a71.26 71.26 0 0 1-7.129 24h-19.597a153.593 153.593 0 0 0 2.984-24zm-16-16H96V88h20.457a136.63 136.63 0 0 1 3.336 24zM96 72V50.672A46.475 46.475 0 0 1 111.39 72zM80 50.672V72H64.61A46.475 46.475 0 0 1 80 50.672zM80 88v24H56.207a136.63 136.63 0 0 1 3.336-24zm-39.785 24H16.473a71.26 71.26 0 0 1 7.129-24h19.597a153.593 153.593 0 0 0-2.984 24zm0 16c.363 8.066 1.36 16.09 2.984 24H23.602a71.26 71.26 0 0 1-7.13-24zm-5.727 40h13.106a95.372 95.372 0 0 0 7.062 15.754A72.41 72.41 0 0 1 34.488 168zm86.856 15.754A95.372 95.372 0 0 0 128.406 168h13.106a72.41 72.41 0 0 1-20.168 15.754zM141.512 72h-13.106a95.372 95.372 0 0 0-7.062-15.754A72.41 72.41 0 0 1 141.512 72zM54.656 56.246A95.372 95.372 0 0 0 47.594 72H34.488a72.41 72.41 0 0 1 20.168-15.754zM384 240v-24h-16v16h-56v16h64a8 8 0 0 0 8-8zM368 184h16v16h-16zM80 224h16v16H80zM80 280a8 8 0 0 0 8 8h48v-16H96v-16H80zM336 320h16v16h-16zM336 288h16v16h-16zm0 0" fill="#000000" opacity="1" data-original="#000000" class=""></path></g></svg>